PathFileType	4	(X/Y/Z)	3_2_78_p0_0-747_filt_butterworth.trc
DataRate	CameraRate	NumFrames	NumMarkers	Units	OrigDataRate	OrigDataStartFrame	OrigNumFrames
57.0	57.0	7	27	m	57.0	280	747
Frame#	Time	RHip			RKnee			RAnkle			RBigToe			RSmallToe			RHeel			LHip			LKnee			LAnkle			LBigToe			LSmallToe			LHeel			Neck			Head			Nose			RShoulder			RElbow			RWrist			RThumb			RIndex			RPinky			LShoulder			LElbow			LWrist			LThumb			LIndex			LPinky			
		X1	Y1	Z1	X2	Y2	Z2	X3	Y3	Z3	X4	Y4	Z4	X5	Y5	Z5	X6	Y6	Z6	X7	Y7	Z7	X8	Y8	Z8	X9	Y9	Z9	X10	Y10	Z10	X11	Y11	Z11	X12	Y12	Z12	X13	Y13	Z13	X14	Y14	Z14	X15	Y15	Z15	X16	Y16	Z16	X17	Y17	Z17	X18	Y18	Z18	X19	Y19	Z19	X20	Y20	Z20	X21	Y21	Z21	X22	Y22	Z22	X23	Y23	Z23	X24	Y24	Z24	X25	Y25	Z25	X26	Y26	Z26	X27	Y27	Z27	
280	4.912280701754386	0.1907120539866883	1.0100613282941837	0.38983409524151275	0.18988018003677157	0.5481130937725216	0.38916094519522376	0.14816951292832548	0.11126217060596648	0.452334060860955	0.16848829600242554	0.12097468549585144	0.24470750257410798	0.21496676929487313	0.10787677242518381	0.2964333680146849	0.13604960373617442	0.04073842778794386	0.5108164078280073	-0.02459722124833027	1.0180761477266969	0.37016910867914443	-0.02412847891428763	0.5541083171287602	0.36841596025369344	-0.017836519662565425	0.10495832166187449	0.4238632789583027	0.027730298114600975	0.12283357099105442	0.22977237458315952	-0.0401831261613383	0.10957547168429968	0.2710943884333284	-0.01584760299610561	0.04342213901264637	0.5010736441073907	0.08324548551661264	1.5551695533159366	0.3667357491312513	0.12743859882789182	1.7839213613562968	0.2585979683548968	0.12024603605341883	1.659793823723071	0.20220466395837003	0.22999836620907507	1.488627873673764	0.35787988628097384	0.3690049917344483	1.2524592743377534	0.3947482376415041	0.3374818150627803	1.424344209683936	0.2700193455677779	0.2909915459230292	1.5486298771495566	0.2098092899347671	0.3549639666933341	1.5845678641570797	0.15078423802726063	0.3884195564068113	1.5218823508245383	0.20935228964384694	-0.06310063274847436	1.4811415903369216	0.3603631734539005	-0.1389285962753069	1.229816262340956	0.373670244143451	-0.06465149075828709	1.3339502002178276	0.23122893003480519	-0.018226423754217486	1.425077553825443	0.10814487035539198	-0.03001962653834537	1.433363189560455	0.06633778699860857	-0.015442423501043977	1.3886271805243933	0.05570549956351739	
281	4.9298245614035086	0.19063023295132678	1.0122308447152542	0.38987987991411255	0.18946410115818016	0.5487596683508346	0.3904621256686346	0.14796616401049562	0.11220121795905703	0.4508909340848756	0.1682848980872987	0.12095147924432287	0.2441430425581537	0.21497252640752423	0.10763393715307913	0.296635469550101	0.13573469838708715	0.04117532080083045	0.509750836689291	-0.024527015287578002	1.0191889375637402	0.3702482097093924	-0.024347071913594413	0.5543762865588518	0.3698418506305764	-0.017789355245750798	0.10510092705643088	0.4240073032963527	0.028647809912841042	0.12048047202229462	0.2331632473312386	-0.04003851285371712	0.10863889858367509	0.27126956273172886	-0.01535690282504561	0.043789708648036954	0.500942403285651	0.08333009616682728	1.5548918915366292	0.3684714160841634	0.1258119901118251	1.78280687391568	0.2580430705317536	0.11828132070442242	1.6591626588056732	0.20311114257837673	0.2276995965420249	1.4876077255605304	0.37004200314045455	0.37649876162485696	1.2633220375570213	0.3741793984645572	0.3353474373665058	1.4385427521554963	0.2642493868139984	0.2863737137905415	1.5621940764108342	0.211157347237997	0.3446058727040491	1.5977849057400366	0.15547838748483847	0.3818211628679391	1.5385339231511317	0.19877850283875734	-0.062143101224388084	1.4819827827758516	0.36424171558411145	-0.1411810051050266	1.2336552169587212	0.3492205997155263	-0.06313211148035756	1.3558420420285469	0.2271615910607282	-0.016452723672171925	1.4531163192808128	0.12339629154213466	-0.02798672649977736	1.4646338264061545	0.07437998438950354	-0.011953946499394753	1.4230501362053047	0.046474557581820966	
282	4.947368421052632	0.19053297496832347	1.0141851332803202	0.38962945007324984	0.18903553956222044	0.54929837875542	0.39170537105355013	0.1476572270051412	0.11311052624571367	0.44981432913221886	0.1680279939768924	0.12129967512462338	0.24333252361075566	0.2152452729124899	0.10734250369732519	0.29688512355772545	0.1353869571350196	0.0415909549831123	0.5086973047216038	-0.02445179127473601	1.0202213889128	0.3703625835842673	-0.02462676931476803	0.5545337395435621	0.371210750762773	-0.017900421837980986	0.10534565198782944	0.4240968744245634	0.02925174116832662	0.1180061957476545	0.237027531127482	-0.039939080410552955	0.10803776108841708	0.2717538464821537	-0.0148784954330527	0.04438164033405052	0.5005721119873878	0.08406274229066978	1.554183254035948	0.3711875944690814	0.12406149670734447	1.7829866902773581	0.25841748870840264	0.11637982703126554	1.6583619427281564	0.20471262711621513	0.22663288253035846	1.4858289752470457	0.38543443463470894	0.3814265509838827	1.2729089695085902	0.3534146342000733	0.3322865959763817	1.4497652273694062	0.2537469692150155	0.28209868669667093	1.5721966947441097	0.20545746834262318	0.3299095652579607	1.6041565641233086	0.15492736802763618	0.3692016293755709	1.548751207116226	0.17705460823275077	-0.06082445372508148	1.4823542284700417	0.3703773725426704	-0.1442347188727139	1.2396394292078619	0.3242625882943666	-0.06192467117638488	1.3757453596420857	0.22412318484419833	-0.013618065372412242	1.4758554204890764	0.13847309905489258	-0.02496993091198503	1.490947471268811	0.08287672278080548	-0.00800696288199635	1.4523332119268544	0.04269868672705274	
283	4.964912280701754	0.19046315566224467	1.0156795315499172	0.38924444183953427	0.18854287332973213	0.5496511721998832	0.392825194829572	0.14735684939410995	0.11402523620832396	0.4489728163429515	0.16774294535725573	0.12217157368816003	0.2418673089157397	0.21581810342180735	0.10716637738835723	0.2971205581959862	0.13500674930994488	0.04201537990993845	0.5076399151735763	-0.024376585600545404	1.0211542577284805	0.37047510423652624	-0.024955138145108507	0.5545379994799536	0.3724034156316821	-0.018144643979302516	0.10570477309312992	0.4241444886405209	0.029662397967054846	0.11592793728961259	0.2405427213820455	-0.039878168591795854	0.10803787049479724	0.2723624834085823	-0.014447793912954233	0.045191243075458035	0.49988751547697713	0.08540389615572122	1.5531945192854881	0.37453993363200966	0.12239927389878538	1.7844015430657654	0.25983292770459004	0.11493736769568301	1.657312631336209	0.20718750056975246	0.22641872801966728	1.4839601020180941	0.4019716610018175	0.3838338322781269	1.2809990120870665	0.3349197639983161	0.3286854482259287	1.4581720409791064	0.23914103729267622	0.27705766602885096	1.5779630286802173	0.1971231226734158	0.31290571860572824	1.6046517973427132	0.15059477139988198	0.3532538957680257	1.5524942169142024	0.14811452359354288	-0.05908640662468725	1.4825165096132984	0.3770983320702179	-0.14767281413743083	1.247113328175565	0.3018913675378812	-0.061583727469382114	1.3925531158745292	0.22238592190938594	-0.010020575471569471	1.492258490515452	0.1503626196883101	-0.02138682256720557	1.5105866560849464	0.09021889281571321	-0.0050607649563115765	1.4742696827205006	0.0417137341696136	
284	4.982456140350878	0.1904302222113284	1.0167264342973614	0.38889023804171485	0.18798499729636461	0.5498563248068229	0.39379889236730986	0.14712985860001676	0.11495225148721906	0.4481483031768033	0.1674587790647752	0.12366518556914492	0.23972489912085088	0.21669453084982132	0.10713613504012377	0.29726350262537293	0.13460489517334207	0.04247640459937925	0.5066110584544911	-0.02430410969189258	1.0219120129059276	0.37057770409798385	-0.025346881104419426	0.5543049026115666	0.3734213792100367	-0.01846081157203857	0.10616064863812026	0.4241772408797216	0.02975895474243545	0.11414207636058912	0.24365208254689605	-0.039809107414145846	0.1086227226453655	0.2728471255283757	-0.014078310216783456	0.046190124322930654	0.49881083032593354	0.08727623939175376	1.5520467982419641	0.37810752949916676	0.1210125060972739	1.7866247808733413	0.26208459343813884	0.11424028500717152	1.6560289080200166	0.21024359390848257	0.22678209396860022	1.4825820886269387	0.4166629268041227	0.38413842755233507	1.2876664937021154	0.32062030962322025	0.32489363077252564	1.4638060492295584	0.2225882883251407	0.2699275437422324	1.5782384196777164	0.1890137773165415	0.2951849801214043	1.5994657364542204	0.14332745451725146	0.3354506151074078	1.5491866917410078	0.11850021471975078	-0.056881648186237796	1.4828132637540077	0.3831039824261687	-0.15046517390031178	1.2558166317364747	0.2832749040795466	-0.06180959272702817	1.4063190969068795	0.22176759256562908	-0.004872531295286694	1.5025124884247343	0.1568892848246642	-0.01624851990298519	1.5228100849730604	0.09432470330461713	-0.004382556781984163	1.4876203515804338	0.04151222712223263	
285	5.0	0.19041779944099596	1.017490599300044	0.38869671163024627	0.18740645845225865	0.5499620726294876	0.39464627160929583	0.14697114748842238	0.11586940508094402	0.4472289930546775	0.1671980342230752	0.12574560737977905	0.23720481073068037	0.21772178217841098	0.1072392669551438	0.2972445547876	0.13419305020229202	0.04296168392168396	0.5056729351538718	-0.02423574142354869	1.0224271502966227	0.37068565334480474	-0.025804294421890202	0.5538200811775745	0.37433773527919784	-0.01879309847651085	0.10668365690985611	0.42421953974411786	0.029411743590344357	0.11215840229366018	0.24678281609026628	-0.0397185181092085	0.10949046001498748	0.2730482040039978	-0.013774537992053183	0.04735885929634251	0.49727741668754255	0.08945129364277146	1.5508819603953583	0.3813114016239088	0.12008802632193927	1.7889422222652027	0.2647969929361406	0.11436962844521908	1.6546010153302968	0.21323257233866577	0.2276564944262548	1.4819924002224438	0.4265076723418631	0.38289611235094556	1.2929875689622075	0.31117828648265633	0.32116779467652923	1.466196228503725	0.20663879430800886	0.2599612211472938	1.5723468949732036	0.18177577073133072	0.2779403499843078	1.588918626837837	0.13334475232769075	0.3167328402907204	1.5384834758687214	0.09550806660747768	-0.05439283954790837	1.48347238079549	0.38760333426648774	-0.15154914289748386	1.2654122008472455	0.26812438967343766	-0.061571362772622346	1.4173892002997603	0.22119057448272822	0.002564665045319158	1.507352537013181	0.15747111541324782	-0.008419240208151223	1.5280429310540264	0.09323166170618738	-0.005640233392657867	1.4925707036910556	0.041700253730311596	
286	5.017543859649122	0.19041102826889925	1.0180436138559408	0.388675050568928	0.18686274561047797	0.5499546833765382	0.3954199036157757	0.1468512383310124	0.11670819807657042	0.44627705641497767	0.16701356306352153	0.12817828736918804	0.23471430724145717	0.2184846587559542	0.10743070438206188	0.2970725802217746	0.13378591055449768	0.0433956466941735	0.5048922308647208	-0.024174750646242738	1.022699896062133	0.3708158534062089	-0.02631427205078015	0.5531530390737793	0.375289448424151	-0.019125718981014894	0.10724590756922865	0.4242737807679634	0.028533189139861713	0.10974581709077467	0.25004528507055823	-0.03973185232165021	0.11021011952569527	0.2731450420827385	-0.013531836548364968	0.0486805405062954	0.4952940661357604	0.09153839368760325	1.5499017828434931	0.3835436732312191	0.11978555353705622	1.7906637178160356	0.2676323059731028	0.1151942038511701	1.6531926023571129	0.21555582326045392	0.22886891485364835	1.4821155957727221	0.4299588586606452	0.38040526520002893	1.296774294798307	0.3061313045560318	0.31776694728336236	1.4646359164370164	0.19378068747117677	0.24783849607164563	1.560993070737736	0.1756345441405804	0.262667233192179	1.5737028177093801	0.12195600108489191	0.29867319292425754	1.5213052369884574	0.08343404710303493	-0.05198102420074718	1.4844320941761278	0.3900365865929388	-0.15044709782886123	1.2747836850269383	0.2566618094595528	-0.060174166379453664	1.4255251350691442	0.21954116695939124	0.011567510443700144	1.5077613342754472	0.15359979713348365	0.0019086248012227555	1.527720354190823	0.08658681659045118	-0.007053238781512778	1.4904069137445914	0.042644828144581204	
